<?xml version="1.0" encoding="iso-8859-1"?>
<!-- Generator: Adobe Illustrator 19.0.0, SVG Export Plug-In . SVG Version: 6.00 Build 0)  -->
<svg version="1.1" id="Capa_1" xmlns="http://www.w3.org/2000/svg" xmlns:xlink="http://www.w3.org/1999/xlink" x="0px" y="0px"
	 viewBox="0 0 508 508" style="enable-background:new 0 0 508 508;" xml:space="preserve">
<g>
	<g>
		<path d="M401.5,73.7h-64l-8.3-22.1c-2.4-6.4-8.5-10.6-15.3-10.6h-11.4C298.6,17.7,278.3,0,254,0s-44.6,17.7-48.5,41h-11.4
			c-6.8,0-13,4.3-15.3,10.6l-8.3,22.1h-64c-13.6,0-24.6,11-24.6,24.6v385.1c0,13.6,11,24.6,24.6,24.6h295c13.6,0,24.6-11,24.6-24.6
			V98.3C426.1,84.8,415,73.7,401.5,73.7z M194.1,57.4h27.1v-8.2c0-18.1,14.7-32.8,32.8-32.8c18.1,0,32.8,14.7,32.8,32.8v8.2h27.1
			l18.4,49.2H175.7L194.1,57.4z M409.7,483.4c0,4.5-3.7,8.2-8.2,8.2h-295c-4.5,0-8.2-3.7-8.2-8.2V98.3c0-4.5,3.7-8.2,8.2-8.2h57.8
			l-4,10.6c-1.9,5-1.2,10.7,1.9,15.1c3.1,4.4,8.1,7.1,13.5,7.1h156.6c5.4,0,10.4-2.6,13.5-7.1c3.1-4.4,3.8-10.1,1.9-15.1l-4-10.6
			h57.8c4.5,0,8.2,3.7,8.2,8.2V483.4z"/>
	</g>
</g>
<g>
	<g>
		<rect x="213" y="73.7" width="16.4" height="16.4"/>
	</g>
</g>
<g>
	<g>
		<rect x="245.8" y="73.7" width="16.4" height="16.4"/>
	</g>
</g>
<g>
	<g>
		<rect x="278.6" y="73.7" width="16.4" height="16.4"/>
	</g>
</g>
<g>
	<g>
		<polygon points="177.9,169.7 166.3,158.1 147.5,176.9 128.7,158.1 117.1,169.7 135.9,188.5 117.1,207.2 128.7,218.8 147.5,200 
			166.3,218.8 177.9,207.2 159.1,188.5 		"/>
	</g>
</g>
<g>
	<g>
		<polygon points="243.4,407.3 231.8,395.7 213,414.5 194.2,395.7 182.7,407.3 201.4,426.1 182.7,444.9 194.2,456.4 213,437.7 
			231.8,456.4 243.4,444.9 224.6,426.1 		"/>
	</g>
</g>
<g>
	<g>
		<polygon points="333.5,407.3 321.9,395.7 303.2,414.5 284.4,395.7 272.8,407.3 291.6,426.1 272.8,444.9 284.4,456.4 303.2,437.7 
			321.9,456.4 333.5,444.9 314.7,426.1 		"/>
	</g>
</g>
<g>
	<g>
		<path d="M213,319.5c-15.2,0-27.9,10.5-31.6,24.6h-25.7v-81.9h16.4v-16.4h-49.2v16.4h16.4v98.3h42.1c3.7,14.1,16.4,24.6,31.6,24.6
			c18.1,0,32.8-14.7,32.8-32.8S231.1,319.5,213,319.5z M213,368.7c-9,0-16.4-7.3-16.4-16.4c0-9,7.3-16.4,16.4-16.4
			c9,0,16.4,7.3,16.4,16.4S222.1,368.7,213,368.7z"/>
	</g>
</g>
<g>
	<g>
		<path d="M303.2,319.5c-18.1,0-32.8,14.7-32.8,32.8s14.7,32.8,32.8,32.8c18.1,0,32.8-14.7,32.8-32.8S321.2,319.5,303.2,319.5z
			 M303.2,368.7c-9,0-16.4-7.3-16.4-16.4c0-9,7.3-16.4,16.4-16.4c9,0,16.4,7.3,16.4,16.4C319.5,361.4,312.2,368.7,303.2,368.7z"/>
	</g>
</g>
<g>
	<g>
		<polygon points="257.4,180.3 284.4,153.3 272.8,141.7 226,188.5 272.8,235.2 284.4,223.6 257.4,196.6 368.7,196.6 368.7,352.3 
			385.1,352.3 385.1,180.3 		"/>
	</g>
</g>
<g>
</g>
<g>
</g>
<g>
</g>
<g>
</g>
<g>
</g>
<g>
</g>
<g>
</g>
<g>
</g>
<g>
</g>
<g>
</g>
<g>
</g>
<g>
</g>
<g>
</g>
<g>
</g>
<g>
</g>
</svg>
