<?xml version="1.0" encoding="iso-8859-1"?>
<!-- Generator: Adobe Illustrator 19.0.0, SVG Export Plug-In . SVG Version: 6.00 Build 0)  -->
<svg version="1.1" id="Capa_1" xmlns="http://www.w3.org/2000/svg" xmlns:xlink="http://www.w3.org/1999/xlink" x="0px" y="0px"
	 viewBox="0 0 513.246 513.246" style="enable-background:new 0 0 513.246 513.246;" xml:space="preserve">
<g>
	<polygon style="fill:#344A5E;" points="331.29,315.912 258.756,244.446 186.223,315.912 174.49,305.246 258.756,220.979 
		341.956,305.246 	"/>
	<rect x="250.223" y="144.179" style="fill:#344A5E;" width="16" height="88.533"/>
	<polygon style="fill:#344A5E;" points="234.223,467.379 162.756,394.846 90.223,467.379 78.49,456.712 162.756,372.446 
		245.956,456.712 	"/>
	<rect x="154.223" y="295.646" style="fill:#344A5E;" width="16" height="88.533"/>
	<polygon style="fill:#344A5E;" points="423.023,467.379 350.49,394.846 279.023,467.379 267.29,456.712 350.49,372.446 
		434.756,456.712 	"/>
	<rect x="343.023" y="295.646" style="fill:#344A5E;" width="16" height="88.533"/>
</g>
<circle style="fill:#8AD7F8;" cx="67.823" cy="446.046" r="67.2"/>
<g>
	<circle style="fill:#F3F3F3;" cx="67.823" cy="420.446" r="21.333"/>
	<path style="fill:#F3F3F3;" d="M67.823,513.246c20.267,0,38.4-8.533,50.133-22.4c-6.4-21.333-26.667-37.333-50.133-37.333
		S24.09,468.446,17.69,490.846C29.423,504.712,47.556,513.246,67.823,513.246z"/>
</g>
<circle style="fill:#F3705A;" cx="256.623" cy="446.046" r="67.2"/>
<g>
	<circle style="fill:#F3F3F3;" cx="256.623" cy="420.446" r="21.333"/>
	<path style="fill:#F3F3F3;" d="M256.623,513.246c20.267,0,38.4-8.533,50.133-22.4c-6.4-21.333-26.667-37.333-50.133-37.333
		s-43.733,14.933-50.133,37.333C218.223,504.712,236.356,513.246,256.623,513.246z"/>
</g>
<circle style="fill:#FFD15C;" cx="445.423" cy="446.046" r="67.2"/>
<g>
	<circle style="fill:#F3F3F3;" cx="445.423" cy="420.446" r="21.333"/>
	<path style="fill:#F3F3F3;" d="M445.423,513.246c20.267,0,38.4-8.533,50.133-22.4c-6.4-21.333-26.667-37.333-50.133-37.333
		s-43.733,14.933-50.133,37.333C407.023,504.712,425.156,513.246,445.423,513.246z"/>
</g>
<circle style="fill:#FFD15C;" cx="162.756" cy="312.712" r="67.2"/>
<g>
	<circle style="fill:#F3F3F3;" cx="162.756" cy="287.112" r="21.333"/>
	<path style="fill:#F3F3F3;" d="M162.756,380.979c20.267,0,38.4-8.533,50.133-22.4c-6.4-21.333-26.667-37.333-50.133-37.333
		s-43.733,14.933-50.133,37.333C124.356,371.379,142.49,380.979,162.756,380.979z"/>
</g>
<circle style="fill:#66C6B9;" cx="350.49" cy="312.712" r="67.2"/>
<g>
	<circle style="fill:#F3F3F3;" cx="350.49" cy="287.112" r="21.333"/>
	<path style="fill:#F3F3F3;" d="M350.49,380.979c20.267,0,38.4-8.533,50.133-22.4c-6.4-21.333-26.667-37.333-50.133-37.333
		s-43.733,14.933-50.133,37.333C313.156,371.379,331.29,380.979,350.49,380.979z"/>
</g>
<path style="fill:#F7B64C;" d="M291.823,147.379c0,0-2.133-12.8-3.2-19.2c-1.067-6.4,0-25.6,0-25.6l-60.8,5.333l-3.2,20.267
	l-1.067,12.8c0,0,22.4,21.333,28.8,21.333c6.4,0,7.467,0,7.467,0l16-6.4L291.823,147.379z"/>
<path style="fill:#CED6E0;" d="M289.69,229.512c7.467-37.333,13.867-67.2,13.867-67.2h-43.733c-16,1.067-54.4,6.4-54.4,6.4
	l12.8,60.8H289.69z"/>
<path style="fill:#F3705A;" d="M252.356,184.712c4.267-1.067,8.533-2.133,12.8,0c6.4-3.2,12.8-14.933,18.133-22.4
	c-17.067,1.067-33.067,1.067-48,0C239.556,168.712,244.89,179.379,252.356,184.712z"/>
<path style="fill:#F05540;" d="M237.423,229.512h39.467l-11.733-44.8c-4.267-2.133-8.533-1.067-12.8,0L237.423,229.512z"/>
<g>
	<path style="fill:#FFD15C;" d="M292.89,52.446L292.89,52.446c2.133-9.6,2.133-18.133-4.267-24.533
		c-5.333-5.333-13.867-7.467-20.267-8.533c-2.133,0-4.267,0-6.4,1.067c0,0-1.067,0-1.067,1.067
		c-2.133-1.067-4.267-2.133-7.467-1.067c-10.667,2.133-22.4,2.133-33.067,7.467c-3.2,2.133-6.4,4.267-7.467,8.533
		c-1.067,3.2-1.067,7.467-1.067,10.667c-1.067,7.467,0,13.867,1.067,21.333c0,2.133,1.067,3.2,2.133,4.267
		c0,3.2-1.067,7.467-1.067,10.667c-1.067,34.133,17.067,61.867,40.533,62.933c23.467,0,42.667-26.667,42.667-60.8
		C298.223,71.646,296.09,60.979,292.89,52.446z"/>
	
		<ellipse transform="matrix(-0.9881 -0.1536 0.1536 -0.9881 584.4624 211.8525)" style="fill:#FFD15C;" cx="300.415" cy="83.348" rx="7.466" ry="18.133"/>
	
		<ellipse transform="matrix(0.9941 -0.1086 0.1086 0.9941 -7.6456 23.5533)" style="fill:#FFD15C;" cx="212.42" cy="81.97" rx="7.467" ry="18.134"/>
</g>
<path style="fill:#344A5E;" d="M213.956,86.579L213.956,86.579c1.067-3.2,0-11.733,0-16c0-4.267,2.133-6.4,4.267-10.667
	c2.133-3.2-2.133-10.667-1.067-19.2c0-7.467,3.2-11.733,7.467-11.733c3.2-1.067,45.867,2.133,55.467,0c9.6-3.2,12.8,9.6,11.733,12.8
	c0,3.2-1.067,9.6,3.2,17.067c4.267,6.4,4.267,25.6,3.2,29.867h2.133c0-3.2,1.067-14.933,3.2-21.333
	c2.133-7.467,3.2-42.667-24.533-60.8c-27.733-18.133-53.333,6.4-59.733,11.733c-5.333,5.333-11.733,18.133-11.733,30.933
	C207.556,60.979,212.89,82.312,213.956,86.579z"/>
<path style="fill:#F3F3F3;" d="M288.623,128.179c0,0,1.067,8.533-4.267,13.867c-5.333,5.333-23.467,21.333-23.467,21.333
	s10.667,2.133,13.867,5.333c3.2,3.2,13.867,11.733,16,11.733c0,0,2.133-16,3.2-21.333s3.2-9.6,0-16S291.823,131.379,288.623,128.179
	z"/>
<path style="fill:#415A6B;" d="M287.556,229.512C287.556,229.512,286.49,229.512,287.556,229.512h28.8c0-1.067,0-1.067,1.067-2.133
	c13.867-39.467,13.867-44.8,13.867-44.8l-16-9.6l7.467-5.333c0,0-5.333-16-13.867-22.4c-8.533-6.4-5.333-4.267-7.467-7.467
	c-3.2-4.267-8.533-8.533-10.667-8.533c0,0,4.267,9.6,3.2,20.267C292.89,160.179,288.623,219.912,287.556,229.512z"/>
<path style="fill:#F3F3F3;" d="M224.623,128.179c0,0-1.067,8.533,4.267,13.867c5.333,5.333,23.467,21.333,23.467,21.333
	s-10.667,2.133-13.867,5.333c-3.2,3.2-13.867,11.733-16,11.733c0,0-2.133-16-3.2-21.333c-2.133-5.333-3.2-9.6,0-16
	C222.49,136.712,221.423,131.379,224.623,128.179z"/>
<g>
	<path style="fill:#344A5E;" d="M208.623,229.512c-16-44.8-7.467-81.067-7.467-81.067l-39.467,23.467c0,0-6.4,3.2-7.467,16
		c-1.067,7.467-5.333,24.533-8.533,41.6H208.623z"/>
	<path style="fill:#344A5E;" d="M304.623,229.512h62.933c-3.2-17.067-7.467-35.2-8.533-41.6c-1.067-12.8-7.467-16-7.467-16
		l-40.533-22.4C311.023,149.512,320.623,185.779,304.623,229.512z"/>
</g>
<path style="fill:#415A6B;" d="M196.89,228.446c0,1.067,0,1.067,1.067,2.133h28.8l0,0c-2.133-10.667-5.333-69.333-6.4-80
	c-1.067-10.667,3.2-20.267,3.2-20.267c-2.133,1.067-7.467,4.267-10.667,8.533c-3.2,4.267,1.067,1.067-7.467,7.467
	c-8.533,6.4-13.867,22.4-13.867,22.4l7.467,5.333l-17.067,8.533C181.956,182.579,181.956,187.912,196.89,228.446z"/>
<g>
</g>
<g>
</g>
<g>
</g>
<g>
</g>
<g>
</g>
<g>
</g>
<g>
</g>
<g>
</g>
<g>
</g>
<g>
</g>
<g>
</g>
<g>
</g>
<g>
</g>
<g>
</g>
<g>
</g>
</svg>
