<?xml version="1.0" encoding="iso-8859-1"?>
<!-- Generator: Adobe Illustrator 19.0.0, SVG Export Plug-In . SVG Version: 6.00 Build 0)  -->
<svg version="1.1" id="Layer_1" xmlns="http://www.w3.org/2000/svg" xmlns:xlink="http://www.w3.org/1999/xlink" x="0px" y="0px"
	 viewBox="0 0 512 512" style="enable-background:new 0 0 512 512;" xml:space="preserve">
<circle style="fill:#F2464F;" cx="376.021" cy="374.955" r="128.444"/>
<path style="fill:#D3333C;" d="M376.019,246.505c-3.38,0-6.73,0.133-10.045,0.389c66.244,5.125,118.403,60.499,118.403,128.059
	s-52.158,122.935-118.403,128.058c3.315,0.256,6.665,0.389,10.045,0.389c70.94,0,128.448-57.508,128.448-128.448
	S446.958,246.505,376.019,246.505z"/>
<path style="fill:#EFE7E4;" d="M418.47,65.718v24.151c0,12.349-10.011,22.36-22.36,22.36l0,0c-12.349,0-22.36-10.011-22.36-22.36
	V65.718H107.118v24.151c0,12.349-10.011,22.36-22.36,22.36l0,0c-12.349,0-22.36-10.011-22.36-22.36V65.718H7.534v364.13h252.333
	c-7.881-16.646-12.296-35.254-12.296-54.894c0-70.94,57.508-128.448,128.448-128.448c38.618,0,73.25,17.045,96.797,44.018V65.718
	L418.47,65.718L418.47,65.718z"/>
<path style="fill:#F7CB4F;" d="M84.758,112.228L84.758,112.228c-12.349,0-22.36-10.011-22.36-22.36V30.958
	c0-12.349,10.011-22.36,22.36-22.36l0,0c12.349,0,22.36,10.011,22.36,22.36v58.909C107.118,102.217,97.106,112.228,84.758,112.228z"
	/>
<path style="fill:#F4B008;" d="M84.758,8.598c-3.614,0-7.024,0.863-10.045,2.385c7.303,3.679,12.315,11.24,12.315,19.975v58.909
	c0,8.735-5.012,16.296-12.315,19.975c3.021,1.522,6.431,2.385,10.045,2.385c12.349,0,22.36-10.011,22.36-22.36V30.958
	C107.118,18.609,97.106,8.598,84.758,8.598z"/>
<path style="fill:#F7CB4F;" d="M396.111,112.228L396.111,112.228c-12.349,0-22.36-10.011-22.36-22.36V30.958
	c0-12.349,10.011-22.36,22.36-22.36l0,0c12.349,0,22.36,10.011,22.36,22.36v58.909C418.47,102.217,408.459,112.228,396.111,112.228z
	"/>
<path style="fill:#F4B008;" d="M396.111,8.598L396.111,8.598c-3.614,0-7.024,0.862-10.045,2.385
	c7.303,3.679,12.315,11.24,12.315,19.975v58.909c0,8.735-5.012,16.296-12.315,19.975c3.02,1.522,6.431,2.385,10.045,2.385l0,0
	c12.349,0,22.36-10.011,22.36-22.36V30.958C418.47,18.609,408.459,8.598,396.111,8.598z"/>
<circle style="fill:#EFE7E4;" cx="376.021" cy="374.955" r="96.793"/>
<path style="fill:#D8D1D0;" d="M376.019,278.156c-3.392,0-6.743,0.176-10.045,0.516c48.739,5.025,86.752,46.213,86.752,96.28
	s-38.013,91.255-86.752,96.28c3.302,0.341,6.653,0.516,10.045,0.516c53.46,0,96.797-43.338,96.797-96.797
	S429.478,278.156,376.019,278.156z"/>
<circle style="fill:#F7CB4F;" cx="375.77" cy="375.076" r="15.218"/>
<g>
	<rect x="82.75" y="197.964" style="fill:#465A65;" width="48.537" height="48.537"/>
	<rect x="171.688" y="197.964" style="fill:#465A65;" width="48.537" height="48.537"/>
	<rect x="260.635" y="197.964" style="fill:#465A65;" width="48.537" height="48.537"/>
	<rect x="349.583" y="197.964" style="fill:#465A65;" width="48.537" height="48.537"/>
	<rect x="82.75" y="302.17" style="fill:#465A65;" width="48.537" height="48.537"/>
	<rect x="171.688" y="302.17" style="fill:#465A65;" width="48.537" height="48.537"/>
</g>
<rect x="7.793" y="147.257" style="fill:#D8D1D0;" width="465.28" height="20.09"/>
<path style="fill:#F2464F;" d="M418.47,65.718v24.151c0,12.349-10.011,22.36-22.36,22.36l0,0c-12.349,0-22.36-10.011-22.36-22.36
	V65.718H107.118v24.151c0,12.349-10.011,22.36-22.36,22.36l0,0c-12.349,0-22.36-10.011-22.36-22.36V65.718H7.793v81.545h465.282
	V65.718C473.075,65.718,418.47,65.718,418.47,65.718z"/>
<rect x="7.793" y="127.168" style="fill:#D3333C;" width="465.28" height="20.09"/>
<path d="M333.092,423.148c1.446,1.329,3.273,1.986,5.095,1.986c2.035,0,4.064-0.82,5.55-2.437l24.146-26.284
	c2.459,0.912,5.117,1.412,7.889,1.412c12.545,0,22.752-10.207,22.752-22.752c0-9.905-6.365-18.348-15.218-21.465v-51.438
	c0-4.162-3.373-7.534-7.534-7.534c-4.161,0-7.534,3.372-7.534,7.534v51.438c-8.854,3.117-15.218,11.559-15.218,21.465
	c0,4.279,1.189,8.285,3.252,11.707l-23.63,25.722C329.827,415.567,330.028,420.332,333.092,423.148z M375.772,367.388
	c4.237,0,7.684,3.447,7.684,7.684c0,4.238-3.447,7.684-7.684,7.684c-4.237,0-7.684-3.447-7.684-7.684
	C368.087,370.836,371.535,367.388,375.772,367.388z"/>
<path d="M480.349,287.843V149.194c0.164-0.618,0.259-1.263,0.259-1.932V65.718c0-4.162-3.373-7.534-7.534-7.534h-0.259h-46.811
	V30.959c0-16.484-13.411-29.895-29.894-29.895c-16.484,0-29.894,13.411-29.894,29.895v27.226H114.652V30.959
	c0-16.484-13.411-29.895-29.894-29.895S54.864,14.476,54.864,30.959v27.226H7.793H7.534C3.373,58.185,0,61.557,0,65.719v364.129
	c0,4.162,3.373,7.534,7.534,7.534h247.705c22.657,43.656,68.29,73.554,120.779,73.554c74.981,0,135.982-61.002,135.982-135.981
	C512,341.837,500.096,311.453,480.349,287.843z M381.285,30.959c0-8.176,6.652-14.827,14.826-14.827
	c8.176,0,14.826,6.652,14.826,14.827v34.759v24.15c0,1.022-0.104,2.02-0.301,2.984c-1.385,6.75-7.372,11.843-14.525,11.843
	c-8.176,0-14.826-6.652-14.826-14.827V65.718L381.285,30.959L381.285,30.959z M69.932,30.959c0-8.176,6.651-14.827,14.826-14.827
	s14.826,6.652,14.826,14.827v34.759v24.15c0,8.176-6.652,14.827-14.826,14.827s-14.826-6.652-14.826-14.827V65.718V30.959z
	 M54.864,73.251v16.616c0,16.484,13.41,29.895,29.894,29.895s29.894-13.411,29.894-29.895V73.251h251.566v16.616
	c0,16.484,13.411,29.895,29.894,29.895c16.484,0,29.894-13.411,29.894-29.895V73.251h39.278v66.477H15.327V73.251
	C15.327,73.251,54.864,73.251,54.864,73.251z M248.513,422.313H15.067V154.796h450.215V272.38
	c-10.04-8.736-21.252-15.903-33.251-21.329c-0.449-0.204-0.903-0.398-1.355-0.597c-0.458-0.201-0.914-0.406-1.374-0.602
	c-0.805-0.344-1.615-0.676-2.428-1.006c-0.103-0.042-0.206-0.085-0.31-0.127c-6.723-2.702-13.71-4.879-20.91-6.486v-44.268
	c0-4.162-3.373-7.534-7.534-7.534h-48.54c-4.161,0-7.534,3.372-7.534,7.534v45.302c-58.596,15.126-102.009,68.431-102.009,131.686
	c0,1.117,0.016,2.231,0.042,3.343c0.006,0.255,0.017,0.509,0.025,0.763c0.026,0.888,0.058,1.776,0.101,2.661
	c0.01,0.212,0.023,0.424,0.035,0.636c0.051,0.972,0.114,1.943,0.185,2.911c0.007,0.093,0.014,0.187,0.021,0.28
	C241.413,398.189,244.106,410.491,248.513,422.313z M357.114,238.971V205.5h33.473v33.472L357.114,238.971L357.114,238.971z
	 M376.018,495.867c-62.497,0-114.072-47.661-120.286-108.546c-0.003-0.029-0.005-0.058-0.008-0.087
	c-0.096-0.957-0.182-1.919-0.257-2.882c-0.016-0.207-0.027-0.416-0.042-0.623c-0.058-0.808-0.113-1.616-0.155-2.428
	c-0.023-0.458-0.038-0.917-0.056-1.376c-0.024-0.585-0.051-1.168-0.067-1.754c-0.027-1.07-0.043-2.143-0.043-3.217
	c0-66.672,54.242-120.915,120.915-120.915c1.075,0,2.148,0.015,3.219,0.043c0.187,0.005,0.373,0.016,0.56,0.021
	c0.896,0.028,1.792,0.061,2.685,0.108c0.142,0.007,0.281,0.019,0.423,0.027c0.948,0.054,1.895,0.116,2.841,0.192
	c0.068,0.006,0.137,0.013,0.206,0.018c13.92,1.147,27.431,4.69,39.973,10.376c0.432,0.197,0.859,0.401,1.289,0.603
	c0.441,0.206,0.883,0.411,1.322,0.622c0.771,0.374,1.539,0.755,2.301,1.145c0.075,0.038,0.151,0.075,0.226,0.113
	c39.075,20.062,65.871,60.783,65.871,107.643C496.933,441.625,442.691,495.867,376.018,495.867z"/>
<path d="M430.833,445.409c-15.791,12.303-34.744,18.807-54.814,18.807c-49.22,0-89.263-40.043-89.263-89.263
	c0-19.587,6.222-38.175,17.993-53.754c2.508-3.321,1.85-8.045-1.47-10.553s-8.045-1.849-10.552,1.47
	c-13.764,18.217-21.039,39.946-21.039,62.838c0,57.528,46.802,104.33,104.33,104.33c23.457,0,45.614-7.603,64.075-21.989
	c3.282-2.557,3.869-7.292,1.312-10.572C438.849,443.438,434.115,442.85,430.833,445.409z"/>
<path d="M376.018,270.622c-23.868,0-46.331,7.846-64.962,22.687c-3.255,2.593-3.791,7.333-1.198,10.586
	c2.592,3.254,7.331,3.79,10.587,1.198c15.935-12.696,35.152-19.405,55.573-19.405c49.22,0,89.264,40.043,89.264,89.263
	c0,20.447-6.726,39.684-19.451,55.631c-2.595,3.252-2.062,7.992,1.189,10.587c1.388,1.108,3.047,1.645,4.694,1.645
	c2.213,0,4.406-0.97,5.893-2.835c14.878-18.643,22.741-41.13,22.741-65.028C480.349,317.425,433.546,270.622,376.018,270.622z"/>
<path d="M131.288,190.431h-48.54c-4.161,0-7.534,3.372-7.534,7.534v48.539c0,4.162,3.373,7.534,7.534,7.534h48.54
	c4.161,0,7.534-3.372,7.534-7.534v-48.539C138.822,193.804,135.449,190.431,131.288,190.431z M123.754,238.971H90.282V205.5h33.473
	C123.754,205.5,123.754,238.971,123.754,238.971z"/>
<path d="M220.232,190.431h-48.54c-4.161,0-7.534,3.372-7.534,7.534v48.539c0,4.162,3.373,7.534,7.534,7.534h48.54
	c4.161,0,7.534-3.372,7.534-7.534v-48.539C227.765,193.804,224.393,190.431,220.232,190.431z M212.698,238.971h-33.473V205.5h33.473
	V238.971z"/>
<path d="M260.636,254.039h48.54c4.161,0,7.534-3.372,7.534-7.534v-48.539c0-4.162-3.373-7.534-7.534-7.534h-48.54
	c-4.161,0-7.534,3.372-7.534,7.534v48.539C253.103,250.666,256.476,254.039,260.636,254.039z M268.17,205.499h33.473v33.472H268.17
	V205.499z"/>
<path d="M131.288,294.638h-48.54c-4.161,0-7.534,3.372-7.534,7.534v48.54c0,4.162,3.373,7.534,7.534,7.534h48.54
	c4.161,0,7.534-3.372,7.534-7.534v-48.54C138.822,298.01,135.449,294.638,131.288,294.638z M123.754,343.178H90.282v-33.473h33.473
	C123.754,309.706,123.754,343.178,123.754,343.178z"/>
<path d="M220.232,294.638h-48.54c-4.161,0-7.534,3.372-7.534,7.534v48.54c0,4.162,3.373,7.534,7.534,7.534h48.54
	c4.161,0,7.534-3.372,7.534-7.534v-48.54C227.765,298.01,224.393,294.638,220.232,294.638z M212.698,343.178h-33.473v-33.473h33.473
	V343.178z"/>
<g>
</g>
<g>
</g>
<g>
</g>
<g>
</g>
<g>
</g>
<g>
</g>
<g>
</g>
<g>
</g>
<g>
</g>
<g>
</g>
<g>
</g>
<g>
</g>
<g>
</g>
<g>
</g>
<g>
</g>
</svg>
