<?xml version="1.0" encoding="iso-8859-1"?>
<!-- Generator: Adobe Illustrator 19.0.0, SVG Export Plug-In . SVG Version: 6.00 Build 0)  -->
<svg version="1.1" id="Capa_1" xmlns="http://www.w3.org/2000/svg" xmlns:xlink="http://www.w3.org/1999/xlink" x="0px" y="0px"
	 viewBox="0 0 512.785 512.785" style="enable-background:new 0 0 512.785 512.785;" xml:space="preserve">
<polygon style="fill:#FFD15C;" points="289.451,139.372 295.851,196.972 222.251,196.972 222.251,140.439 "/>
<polygon style="fill:#CED6E0;" points="215.851,268.439 222.251,164.972 223.318,164.972 256.385,179.906 290.518,164.972 
	290.518,164.972 296.918,268.439 "/>
<g>
	<path style="fill:#344A5E;" d="M383.318,268.439H267.051l0,0l32-116.267c0,0,42.667,7.467,59.733,16c0,0,7.467,2.133,9.6,28.8
		C370.518,219.372,381.185,256.706,383.318,268.439z"/>
	<path style="fill:#344A5E;" d="M245.718,268.439L245.718,268.439H129.451c2.133-12.8,12.8-49.067,14.933-72.533
		c2.133-26.667,9.6-28.8,9.6-28.8c17.067-7.467,59.733-14.933,59.733-14.933L245.718,268.439z"/>
</g>
<g>
	<polygon style="fill:#F3705A;" points="241.451,194.839 248.918,203.372 263.851,203.372 271.318,194.839 256.385,179.906 	"/>
	<polygon style="fill:#F3705A;" points="235.051,268.439 248.918,203.372 263.851,203.372 276.651,268.439 	"/>
</g>
<g>
	<path style="fill:#FFD15C;" d="M226.518,157.506v-45.867c-4.267-8.533-6.4-28.8-6.4-28.8V30.572l38.4-19.2l32,19.2l9.6,23.467
		l-6.4,41.6c0,0-2.133,16-7.467,22.4v43.733L226.518,157.506z"/>
	
		<ellipse transform="matrix(0.24 0.9708 -0.9708 0.24 241.9503 -149.003)" style="fill:#FFD15C;" cx="216.138" cy="80.023" rx="16" ry="7.467"/>
	
		<ellipse transform="matrix(0.24 -0.9708 0.9708 0.24 146.9736 353.3734)" style="fill:#FFD15C;" cx="299.173" cy="82.82" rx="16" ry="7.467"/>
</g>
<path style="fill:#415A6B;" d="M297.985,79.639c-1.067,2.133-2.133,7.467-2.133,9.6h-1.067c1.067-2.133,1.067-7.467,1.067-10.667
	c0-4.267,1.067-11.733-1.067-16c-2.133-4.267,1.067-10.667,0-13.867c-1.067-2.133,3.2-8.533-12.8-14.933
	c-14.933-6.4-27.733-3.2-39.467-2.133c-10.667,1.067-14.933,11.733-12.8,19.2c0,0,1.067,4.267-1.067,7.467s-3.2,7.467-4.267,12.8
	c0,4.267,0,14.933,0,19.2h-2.133c-1.067-2.133-1.067-11.733-4.267-20.267c-3.2-7.467-4.267-14.933-5.333-22.4
	c-2.133-21.333,25.6-51.2,51.2-45.867c26.667,5.333,37.333,22.4,39.467,32c2.133,9.6,1.067,25.6,0,32
	C301.185,70.039,297.985,76.439,297.985,79.639z"/>
<path style="fill:#F7B64C;" d="M260.651,139.372c16,0,25.6-20.267,25.6-20.267v42.667c-4.267-2.133-12.8-4.267-20.267-6.4
	c-33.067-12.8-39.467-41.6-39.467-41.6S239.318,139.372,260.651,139.372z"/>
<g>
	<polygon style="fill:#F3F3F3;" points="226.518,128.706 209.451,154.306 229.718,201.239 256.385,179.906 	"/>
	<polygon style="fill:#F3F3F3;" points="286.251,128.706 303.318,154.306 283.051,201.239 256.385,179.906 	"/>
</g>
<g>
	<polygon style="fill:#415A6B;" points="235.051,268.439 196.651,185.239 212.651,171.372 190.251,162.839 222.251,135.106 
		247.851,268.439 	"/>
	<polygon style="fill:#415A6B;" points="316.118,185.239 277.718,268.439 264.918,268.439 290.518,135.106 322.518,162.839 
		299.051,171.372 	"/>
</g>
<path style="fill:#E8EAE9;" d="M81.451,284.439L81.451,284.439c0,9.6,8.533,18.133,18.133,18.133h313.6
	c9.6,0,18.133-8.533,18.133-18.133l0,0c0-9.6-8.533-18.133-18.133-18.133h-313.6C89.985,266.306,81.451,273.772,81.451,284.439z"/>
<polygon style="fill:#CED6E0;" points="121.985,301.506 152.918,511.639 359.851,511.639 390.785,301.506 "/>
<g>
	<path style="fill:#FFD15C;" d="M59.051,418.839c0,0,0,8.533-1.067,12.8c-1.067,4.267,0,5.333,0,5.333l48-5.333
		c0,0-2.133-6.4-2.133-13.867s0-7.467,0-7.467L59.051,418.839z"/>
	
		<ellipse transform="matrix(0.1067 -0.9943 0.9943 0.1067 -296.6723 462.7791)" style="fill:#FFD15C;" cx="109.213" cy="396.496" rx="11.733" ry="5.333"/>
	
		<ellipse transform="matrix(0.1067 0.9943 -0.9943 0.1067 442.0607 302.4525)" style="fill:#FFD15C;" cx="52.707" cy="397.245" rx="11.733" ry="5.333"/>
</g>
<path style="fill:#55C0EB;" d="M162.518,511.639c1.067-10.667,0-27.733-3.2-39.467c-2.133-7.467-8.533-12.8-16-14.933
	c-10.667-2.133-28.8-7.467-33.067-12.8c-1.067-2.133-2.133-4.267-3.2-5.333H56.918c-1.067,2.133-2.133,4.267-3.2,5.333
	c-4.267,5.333-22.4,10.667-33.067,12.8c-7.467,2.133-13.867,7.467-16,14.933c-4.267,11.733-5.333,27.733-4.267,39.467H162.518z"/>
<path style="fill:#8AD7F8;" d="M104.918,431.639c0,0,1.067,5.333,3.2,7.467c2.133,2.133,2.133,5.333,2.133,5.333
	s-1.067-2.133-6.4-3.2c-5.333-1.067-22.4,0-22.4,0s-18.133-1.067-22.4,0c-5.333,1.067-6.4,3.2-6.4,3.2s1.067-2.133,2.133-5.333
	c2.133-2.133,3.2-7.467,3.2-7.467C57.985,425.239,104.918,425.239,104.918,431.639z"/>
<path style="fill:#415A6B;" d="M110.251,392.172c-3.2,6.4-7.467,26.667-7.467,26.667c-2.133,6.4-41.6,6.4-43.733,0
	c0,0-3.2-21.333-7.467-26.667c-3.2-5.333-5.333-42.667,28.8-42.667C115.585,349.506,112.385,386.839,110.251,392.172z"/>
<g>
	<path style="fill:#FFD15C;" d="M233.985,418.839c0,0,0,8.533-1.067,12.8c-1.067,5.333-1.067,5.333-1.067,5.333l48-5.333
		c0,0-2.133-6.4-2.133-13.867s0-7.467,0-7.467L233.985,418.839z"/>
	
		<ellipse transform="matrix(0.1067 -0.9943 0.9943 0.1067 -141.2651 635.6107)" style="fill:#FFD15C;" cx="283.102" cy="396.423" rx="11.733" ry="5.333"/>
	
		<ellipse transform="matrix(0.1067 0.9943 -0.9943 0.1067 598.5132 128.1677)" style="fill:#FFD15C;" cx="227.928" cy="397.172" rx="11.733" ry="5.333"/>
</g>
<path style="fill:#F3705A;" d="M337.451,511.639c1.067-10.667,0-27.733-3.2-39.467c-2.133-7.467-8.533-12.8-16-14.933
	c-10.667-2.133-28.8-7.467-33.067-12.8c-1.067-2.133-2.133-4.267-3.2-5.333h-51.2c-1.067,2.133-2.133,4.267-3.2,5.333
	c-4.267,5.333-22.4,10.667-33.067,12.8c-7.467,2.133-13.867,7.467-16,14.933c-3.2,11.733-4.267,27.733-3.2,39.467H337.451z"/>
<path style="fill:#F05540;" d="M279.851,431.639c0,0,1.067,5.333,3.2,7.467c2.133,2.133,2.133,5.333,2.133,5.333
	s-1.067-2.133-6.4-3.2c-5.333-1.067-22.4,0-22.4,0s-18.133-1.067-22.4,0c-5.333,1.067-6.4,3.2-6.4,3.2s1.067-2.133,2.133-5.333
	c2.133-2.133,3.2-7.467,3.2-7.467C232.918,425.239,279.851,425.239,279.851,431.639z"/>
<path style="fill:#415A6B;" d="M284.118,392.172c-3.2,6.4-7.467,26.667-7.467,26.667c-2.133,6.4-41.6,6.4-43.733,0
	c0,0-3.2-21.333-7.467-26.667c-3.2-5.333-5.333-42.667,28.8-42.667C290.518,349.506,287.318,386.839,284.118,392.172z"/>
<g>
	<path style="fill:#FFD15C;" d="M407.851,418.839c0,0,0,8.533-1.067,12.8c0,5.333,0,5.333,0,5.333l48-5.333
		c0,0-2.133-6.4-2.133-13.867s0-7.467,0-7.467L407.851,418.839z"/>
	
		<ellipse transform="matrix(0.1067 -0.9943 0.9943 0.1067 14.9573 809.5773)" style="fill:#FFD15C;" cx="458.03" cy="396.465" rx="11.733" ry="5.333"/>
	
		<ellipse transform="matrix(0.1067 0.9943 -0.9943 0.1067 754.2098 -45.0055)" style="fill:#FFD15C;" cx="402.152" cy="397.235" rx="11.733" ry="5.333"/>
</g>
<path style="fill:#4ABAA5;" d="M512.385,511.639c1.067-10.667,0-27.733-3.2-39.467c-2.133-7.467-8.533-12.8-16-14.933
	c-10.667-2.133-28.8-7.467-33.067-12.8c-1.067-2.133-2.133-4.267-3.2-5.333h-51.2c-1.067,2.133-2.133,4.267-3.2,5.333
	c-4.267,5.333-22.4,10.667-33.067,12.8c-7.467,2.133-13.867,7.467-16,14.933c-3.2,11.733-4.267,27.733-3.2,39.467H512.385z"/>
<path style="fill:#66C6B9;" d="M454.785,431.639c0,0,1.067,5.333,3.2,7.467c2.133,2.133,2.133,5.333,2.133,5.333
	s-1.067-2.133-6.4-3.2c-5.333-1.067-22.4,0-22.4,0s-18.133-1.067-22.4,0c-5.333,1.067-6.4,3.2-6.4,3.2s1.067-2.133,2.133-5.333
	c2.133-2.133,3.2-7.467,3.2-7.467C407.851,425.239,454.785,425.239,454.785,431.639z"/>
<path style="fill:#415A6B;" d="M459.051,392.172c-3.2,6.4-7.467,26.667-7.467,26.667c-2.133,6.4-41.6,6.4-43.733,0
	c0,0-3.2-21.333-7.467-26.667c-3.2-5.333-5.333-42.667,28.8-42.667C464.385,349.506,462.251,386.839,459.051,392.172z"/>
<g>
</g>
<g>
</g>
<g>
</g>
<g>
</g>
<g>
</g>
<g>
</g>
<g>
</g>
<g>
</g>
<g>
</g>
<g>
</g>
<g>
</g>
<g>
</g>
<g>
</g>
<g>
</g>
<g>
</g>
</svg>
